<svg id="Bold" xmlns="http://www.w3.org/2000/svg" viewBox="0 0 512 512"><defs><style>.cls-1{fill:#d2cadb;}.cls-2{fill:#807196;}</style></defs><title>023-facebook</title><path class="cls-1" d="M416,512H96A96,96,0,0,1,0,416V96A96,96,0,0,1,96,0H416a96,96,0,0,1,96,96V416A96,96,0,0,1,416,512Z"/><path class="cls-2" d="M299.63,170.51H323v-40.7A299.17,299.17,0,0,0,289,128c-33.7,0-56.77,21.2-56.77,60.14V224H195v45.5h37.18V384l45.59,0V269.52h35.68l5.66-45.5H277.76V192.67c0-13.15,3.55-22.16,21.87-22.16Z"/></svg>