<svg id="Bold" xmlns="http://www.w3.org/2000/svg" viewBox="0 0 512 512"><defs><style>.cls-1{fill:#d2cadb;}.cls-2{fill:#807196;}</style></defs><title>044-instagram</title><path class="cls-1" d="M416,512H96A96,96,0,0,1,0,416V96A96,96,0,0,1,96,0H416a96,96,0,0,1,96,96V416A96,96,0,0,1,416,512Z"/><path class="cls-2" d="M256.05,190.27A65.68,65.68,0,1,0,321.73,256,65.67,65.67,0,0,0,256.05,190.27Zm0,108.32A42.64,42.64,0,1,1,298.69,256a42.64,42.64,0,0,1-42.64,42.64Z"/><path class="cls-2" d="M308.78,128.8c-23.55-1.1-81.88-1.06-105.47,0-20.72,1-39,6-53.71,20.7C125,174.13,128.13,207.3,128.13,256c0,49.79-2.77,82.21,21.47,106.45,24.7,24.7,58.37,21.47,106.45,21.47,58.93,0,123.41,5.65,127.15-75.18,1.1-23.57,1.06-81.89,0-105.46C381.09,158.29,357,131,308.78,128.8Zm37.27,217.31c-16.15,16.15-38.53,14.71-90.34,14.71-53.33,0-74.72.78-90.33-14.87-18-17.89-14.72-46.62-14.72-90.16,0-106.4,6.09-105,104.89-105l.48.32c106,0,104.87,6.87,104.87,104.88C360.91,308.66,361.92,330.18,346.05,346.11Z"/><circle class="cls-2" cx="324.34" cy="187.68" r="15.34"/></svg>