<svg id="Layer_1" data-name="Layer 1" xmlns="http://www.w3.org/2000/svg" viewBox="0 0 1056.24 200.51"><defs><style>.cls-1{fill:none;stroke:#010101;stroke-miterlimit:10;stroke-width:2px;}</style></defs><title>ONE</title><path class="cls-1" d="M-221.41,439.32c52-36.93,123.54-44.54,182.18-19.38C5.32,439.06,42,475.23,88.79,488c39.47,10.78,82.48,3.28,119.12-14.92s67.48-46.45,94.07-77.56c7.55-8.84,15.1-18.63,16.34-30.19S311.61,340.5,300,340.38c-10.36-.11-18.4,10.21-19.56,20.5s2.73,20.41,6.55,30c10.53,26.54,23,55.29,48.45,68.25,15.5,7.89,33.61,8.6,51,7.88,80.43-3.37,157.23-33.79,229.5-69.22s142.19-76.42,218-103.42" transform="translate(221.99 -293.47)"/></svg>