<svg id="Layer_1" data-name="Layer 1" xmlns="http://www.w3.org/2000/svg" viewBox="0 0 1524.57 289.21"><defs><style>.cls-1{fill:none;stroke:#000;stroke-miterlimit:10;stroke-width:4px;}</style></defs><title>line</title><path class="cls-1" d="M-391.48,301.39a288,288,0,0,1,138.67,54.75c31,23,59.86,53.54,98.12,58.9,22.06,3.09,44.32-2.82,65.64-9.28a1191.58,1191.58,0,0,0,244.39-105c31.57-18,68.8-38,102.14-23.58,14.67,6.34,25.84,18.52,37.08,29.87,38.5,38.87,83.56,72,134.54,91.89,117.06,45.61,251.54,15.95,363.19-41.66s207.53-141,311.77-211.14c8.54-5.75,18.31-11.67,28.43-9.77" transform="translate(391.71 -134.02)"/></svg>