<?xml version="1.0" encoding="utf-8"?>
<!-- Generator: Adobe Illustrator 23.0.3, SVG Export Plug-In . SVG Version: 6.00 Build 0)  -->
<svg version="1.1" id="Layer_1" xmlns="http://www.w3.org/2000/svg" xmlns:xlink="http://www.w3.org/1999/xlink" x="0px" y="0px"
	 viewBox="0 0 783 175.1" style="enable-background:new 0 0 783 175.1;" xml:space="preserve">
<style type="text/css">
	.st0{fill:#404040;}
</style>
<title>mrchvz</title>
<path class="st0" d="M0,63.1h55.5v21.2C60.6,68.6,71.7,60.8,89,60.8s27.8,8.3,31.4,24.9c5.4-16.6,16.7-24.9,33.9-24.9
	c22.6,0,33.9,12.8,33.9,38.5v69.3h12.9v4.1h-63.8v-4.1h8.1V93.8c0-11.7-1-18.5-3-20.5c-1-0.9-2.3-1.5-3.7-1.4c-4.4,0-8.4,3-11.7,9
	c-3.4,6-5.1,13.6-5,22.8v65h8.3v4.1H71v-4.2H79V93.8c0-11.7-1-18.5-3-20.5c-1-0.9-2.3-1.5-3.7-1.4c-4.3,0-8.2,3.3-11.6,9.8
	S55.5,96,55.5,105v63.5h8.3v4.1H0v-4.1h12.7V67.3H0V63.1z"/>
<path class="st0" d="M281.5,69.6c-5.7,0-10.7,3.7-15,11.1s-6.5,16.1-6.5,26.3v61.7h16.4v4.1h-71.8v-4.1h12.7V67.3h-12.7v-4.1h55.5
	v22.1c2-7.8,5.8-13.9,11.5-18.1c5.6-4.2,12.4-6.4,19.4-6.3c7.2,0,13.1,2,17.6,6.1c4.5,4.1,6.8,9.8,6.8,17.3c0,7.4-1.7,13.2-5.1,17.2
	c-3.4,4-8.6,6-15.5,6c-7,0-12.1-2.3-15.4-6.9c-3.3-4.6-3.7-11-1.3-19.1h8.3C290.2,73.5,288.5,69.6,281.5,69.6z"/>
<path class="st0" d="M381.9,65c-6.8,0-11.6,3.7-14.5,11.1s-4.4,19.6-4.4,36.6v12c0,15.2,1.7,26.1,5.1,32.7c3.4,6.6,9.6,9.9,18.7,9.9
	c9.1,0,16.3-3.1,21.6-9.2c5.3-5.9,8.9-13.2,10.4-21l4.1,0.5c-2.9,13.2-8.3,22.7-16.1,28.6c-8,6-19,9-32.9,9
	c-17.8,0-31.5-4.8-41-14.4c-9.5-9.6-14.3-23.7-14.2-42.2c0-18.5,5.4-32.7,16.2-42.7c10.8-10,25.9-15,45.3-15
	c13.7,0,24.1,2.6,31.3,7.9c7.2,5.3,10.8,11.9,10.8,19.9c0,8-1.7,13.8-5.2,17.5s-8.2,5.5-14.3,5.5c-6.1,0-10.9-1.6-14.6-4.8
	c-3.7-3.2-5.5-8-5.5-14.3c0-2.8,0.4-5.6,1.2-8.3h7.6c1-2.7,1.5-5.5,1.6-8.3C393,68.6,389.3,65,381.9,65z"/>
<path class="st0" d="M426.4,0h55.5v84.3c2.2-6.6,6.1-12.5,11.3-17c5.1-4.3,12.7-6.5,23-6.4c23.8,0,35.7,12.8,35.7,38.5v69.2h12.9
	v4.1h-65.1v-4.1h9.5V93.8c0-9.2-0.6-15.2-1.8-17.9c-1.2-2.7-3.5-4-6.7-4c-4.9,0-9.2,3.2-13,9.7c-3.8,6.5-5.7,14.3-5.7,23.5v63.5h9.9
	v4.1h-65.4v-4.1H439V4.2h-12.7V0z"/>
<path class="st0" d="M554.5,67.3v-4.1h68.9v4.1h-14.5l27.6,76.5l24.9-76.5h-15.5v-4.1H677v4.1h-10.1l-34.1,105.5h-26.3L563.9,67.3
	H554.5z"/>
<path class="st0" d="M783,63.1v4.1l-54.6,101.3h3c12.9,0,23-3.4,30.4-10.1c7.4-6.8,13.1-17.7,17.3-32.9h3.2l-3.7,47.2h-96.7v-3.5
	l55.5-102h-2.5c-15.5,0-26.3,2.5-32.4,7.6c-6.1,5.1-11.5,15.9-16.2,32.5h-3l3-44.2L783,63.1z"/>
</svg>
