<svg id="Layer_1" data-name="Layer 1" xmlns="http://www.w3.org/2000/svg" viewBox="0 0 782.96 175.07"><defs><style>.cls-1{fill:#231f20;}</style></defs><title>mrchvz</title><path class="cls-1" d="M105.12,194.54h55.52v21.19q7.59-23.49,33.51-23.49t31.45,24.88q8.06-24.88,33.86-24.88,33.85,0,33.86,38.47V300h12.9v4.15H242.41V300h8.06V225.18q0-17.51-3-20.5a5,5,0,0,0-3.69-1.39q-6.67,0-11.74,9T227,235.08v65h8.29v4.15h-59.2V300h8.06V225.18q0-17.51-3-20.5a5,5,0,0,0-3.69-1.39q-6.45,0-11.63,9.79t-5.18,23.39V300h8.29v4.15H105.12V300h12.67V198.69H105.12Z" transform="translate(-105.12 -131.42)"/><path class="cls-1" d="M386.61,201q-8.52,0-15,11.06t-6.45,26.26V300h16.35v4.15H309.67V300h12.67V198.69H309.67v-4.15h55.52v22.11q3-11.75,11.51-18.08a31.61,31.61,0,0,1,19.35-6.33q10.83,0,17.62,6.1t6.8,17.28q0,11.17-5.07,17.16t-15.55,6q-10.49,0-15.43-6.91t-1.27-19.12h8.3Q397.19,201,386.61,201Z" transform="translate(-105.12 -131.42)"/><path class="cls-1" d="M487,196.38q-10.14,0-14.51,11.06t-4.38,36.63v12q0,22.82,5.07,32.71t18.66,9.91q13.59,0,21.65-9.21a44.26,44.26,0,0,0,10.37-21l4.14.46q-4.37,19.81-16.12,28.57-12,9-32.94,9-26.73,0-41-14.4T423.7,249.94q0-27.75,16.24-42.73t45.26-15q20.51,0,31.33,7.95t10.82,19.92q0,12-5.18,17.51t-14.28,5.53q-9.11,0-14.63-4.84T487.73,224a30.84,30.84,0,0,1,1.16-8.3h7.6a25.5,25.5,0,0,0,1.61-8.29Q498.1,196.39,487,196.38Z" transform="translate(-105.12 -131.42)"/><path class="cls-1" d="M531.5,131.42H587v84.31a38.3,38.3,0,0,1,11.29-17q7.61-6.45,23-6.45,35.7,0,35.7,38.47V300h12.9v4.15H604.75V300h9.45V225.18q0-13.83-1.85-17.85c-1.23-2.69-3.45-4-6.68-4q-7.36,0-13,9.68T587,236.47V300h9.91v4.15H531.5V300h12.67V135.57H531.5Z" transform="translate(-105.12 -131.42)"/><path class="cls-1" d="M659.58,198.69v-4.15h68.87v4.15H713.94l27.64,76.47,24.88-76.47H751v-4.15h31.09v4.15H772L737.9,304.19H711.64L669,198.69Z" transform="translate(-105.12 -131.42)"/><path class="cls-1" d="M888.08,194.54v4.15L833.49,300h3q19.35,0,30.4-10.13T884.17,257h3.22l-3.68,47.22H787v-3.46l55.52-102h-2.54q-23.27,0-32.36,7.6t-16.24,32.48h-3l3-44.23Z" transform="translate(-105.12 -131.42)"/></svg>