<svg id="Layer_1" data-name="Layer 1" xmlns="http://www.w3.org/2000/svg" viewBox="0 0 782.96 175.09"><defs><style>.cls-1{fill:#4d4352;}</style></defs><title>mrchvz-purple</title><path class="cls-1" d="M0,63.12H55.52V84.31Q63.11,60.82,89,60.82T120.48,85.7q8.05-24.89,33.86-24.88,33.85,0,33.86,38.47v69.29h12.9v4.15H137.29v-4.15h8.06V93.76q0-17.51-3-20.5a5,5,0,0,0-3.69-1.39q-6.67,0-11.74,9t-5,22.79v65h8.29v4.15H71v-4.23H79V93.76q0-17.51-3-20.5a5,5,0,0,0-3.69-1.39q-6.45,0-11.63,9.79t-5.18,23.39v63.53h8.29v4.15H0v-4.15H12.67V67.27H0Z"/><path class="cls-1" d="M281.49,69.58q-8.52,0-15,11.06T260,106.9v61.68h16.35v4.15H204.55v-4.15h12.67V67.27H204.55V63.12h55.52V85.23q3-11.74,11.51-18.08a31.61,31.61,0,0,1,19.35-6.33q10.83,0,17.62,6.1t6.8,17.28q0,11.17-5.07,17.16t-15.55,6q-10.49,0-15.43-6.91T278,81.33h8.3Q292.08,69.59,281.49,69.58Z"/><path class="cls-1" d="M381.88,65Q371.74,65,367.37,76T363,112.65v12q0,22.82,5.07,32.71t18.66,9.91q13.59,0,21.65-9.21a44.28,44.28,0,0,0,10.37-21l4.14.46q-4.36,19.81-16.12,28.57-12,9-32.94,9-26.73,0-41-14.4t-14.24-42.17q0-27.75,16.24-42.73t45.26-15q20.51,0,31.33,7.95t10.82,19.92q0,12-5.18,17.51t-14.28,5.53q-9.11,0-14.63-4.84t-5.53-14.28a31,31,0,0,1,1.16-8.3h7.6A25.53,25.53,0,0,0,393,76Q393,65,381.88,65Z"/><path class="cls-1" d="M426.38,0h55.5V84.31a38.35,38.35,0,0,1,11.29-17q7.6-6.45,23-6.45,35.7,0,35.7,38.47v69.25h12.9v4.15H499.63v-4.15h9.45V93.76q0-13.83-1.85-17.85c-1.23-2.69-3.45-4-6.68-4q-7.37,0-13,9.68t-5.67,23.46v63.53h9.91v4.15H426.38v-4.15h12.67V4.15H426.38Z"/><path class="cls-1" d="M554.46,67.27V63.12h68.87v4.15H608.82l27.64,76.47,24.88-76.47H645.88V63.12H677v4.15H666.88l-34.1,105.5H606.52L563.88,67.27Z"/><path class="cls-1" d="M783,63.12v4.15L728.37,168.58h3q19.35,0,30.4-10.13t17.28-32.87h3.22l-3.68,47.22H681.88v-3.46l55.52-102h-2.54q-23.26,0-32.36,7.6t-16.24,32.48h-3l3-44.23Z"/></svg>