<?xml version="1.0" encoding="utf-8"?>
<!-- Generator: Adobe Illustrator 23.0.3, SVG Export Plug-In . SVG Version: 6.00 Build 0)  -->
<svg version="1.1" id="Layer_1" xmlns="http://www.w3.org/2000/svg" xmlns:xlink="http://www.w3.org/1999/xlink" x="0px" y="0px"
	 viewBox="0 0 480 480" style="enable-background:new 0 0 480 480;" xml:space="preserve">
<style type="text/css">
	.st0{fill:#96889D;}
</style>
<path class="st0" d="M352,76H128c-4.4,0-8,3.6-8,8v208c0,0.1,0.1,0.2,0.1,0.3c0,0.9,0.2,1.9,0.6,2.8c0,0.1,0.1,0.1,0.1,0.2
	c0.4,0.8,0.8,1.5,1.4,2.1c0.7,0.7,1.4,1.2,2.3,1.7c0.2,0.1,0.5,0.3,0.8,0.4c0.9,0.4,1.8,0.6,2.8,0.6h224c4.4,0,8-3.6,8-8V84
	C360,79.6,356.4,76,352,76z M344,92v116.7l-26.3-26.3c-1.5-1.5-3.5-2.3-5.7-2.3c-2.1,0-4.2,0.8-5.7,2.3l-55.2,55.2l-38-31.7
	c-3.2-2.6-7.9-2.4-10.8,0.5L136,272.7V92H344z M208,284h-60.7l61.2-61.2l37.4,31.2v0l0.1,0.1l35.9,29.9H208z M344,284h-37.1
	l-43.4-36.2l48.5-48.5l32,32V284z"/>
<path class="st0" d="M473.7,123.2L392,105.3V52c0-4.4-3.6-8-8-8H96c-4.4,0-8,3.6-8,8v53.3L6.3,123.2c-2.1,0.5-3.9,1.7-5.1,3.5
	c-1.1,1.8-1.5,4-1.1,6.1l65.2,296.9c0.8,3.7,4.1,6.2,7.8,6.2c0.6,0,1.1-0.1,1.7-0.2L240,399.6l165.1,36.3c0.6,0.1,1.1,0.2,1.7,0.2
	c3.8,0,7-2.6,7.8-6.3l65.2-296.9c0.5-2.1,0.1-4.2-1.1-6C477.6,125,475.8,123.7,473.7,123.2L473.7,123.2z M392,154.4l32.4,7.1
	L392,309V154.4z M104,60h272v288H104V60z M88,309L55.6,161.6l32.4-7.1V309z M79.3,418.5L17.5,137.2L88,121.7v16.3l-43.6,9.6
	c-4.3,0.9-7,5.2-6.1,9.5l44.6,203.2c0.8,3.7,4.1,6.3,7.8,6.3c0.6,0,1.2-0.1,1.7-0.2l11.1-2.5h14.2l-0.1,0.5
	c-0.9,4.3,1.8,8.6,6.1,9.5l78.9,17.3L79.3,418.5z M400.7,418.5l-159.2-35h-0.1L152.6,364h223.8l11.1,2.5c0.6,0.1,1.1,0.2,1.7,0.2
	c3.8,0,7-2.6,7.8-6.3l44.6-203.2c0.9-4.3-1.8-8.6-6.1-9.5l-43.6-9.6v-16.3l70.5,15.4L400.7,418.5z"/>
<path class="st0" d="M248,188c16.7,0.1,31.6-10.2,37.5-25.8c5.9-15.6,1.4-33.2-11.2-44.1c-0.1-0.2-0.2-0.3-0.3-0.5
	c-0.4-0.3-0.8-0.6-1.3-0.9c-7-5.6-15.7-8.7-24.7-8.8c-22.1,0-40,17.9-40,40C208,170.1,225.9,188,248,188z M248,124
	c13.3,0,24,10.7,24,24c0,13.3-10.7,24-24,24c-13.3,0-24-10.7-24-24C224,134.8,234.8,124,248,124z"/>
</svg>
