<svg id="Bold" xmlns="http://www.w3.org/2000/svg" viewBox="0 0 512 512"><defs><style>.cls-1{fill:#d2cadb;}.cls-2{fill:#807196;}</style></defs><title>096-twitter</title><path class="cls-1" d="M416,512H96A96,96,0,0,1,0,416V96A96,96,0,0,1,96,0H416a96,96,0,0,1,96,96V416A96,96,0,0,1,416,512Z"/><path class="cls-2" d="M357.7,203.87A104.73,104.73,0,0,0,384,176.62h0a109.8,109.8,0,0,1-30.24,8.29,52.25,52.25,0,0,0,23.09-29,104.84,104.84,0,0,1-33.28,12.7,52.49,52.49,0,0,0-90.79,35.91,54.16,54.16,0,0,0,1.22,12,148.56,148.56,0,0,1-108.18-54.89A52.5,52.5,0,0,0,162,231.71a51.91,51.91,0,0,1-23.71-6.46v.57a52.72,52.72,0,0,0,42,51.57,52.3,52.3,0,0,1-13.76,1.73,46.09,46.09,0,0,1-9.94-.9,53,53,0,0,0,49,36.56,105.44,105.44,0,0,1-65.07,22.39,98,98,0,0,1-12.56-.72A147.77,147.77,0,0,0,208.51,360c92.61,0,153-77.26,149.19-156.13Z"/></svg>